# 
# Wavefront OBJ file
# Created with Kaydara FBX
# 
mtllib goal.mtl

g geometry_goal
v -9.572596 -4.745017 -0.727403
v -9.572596 -4.745017 0.727403
v -12.815432 -4.745017 0.727403
v -12.815432 -4.745017 -0.727403
v -9.572593 -4.381315 -0.727403
v -9.572596 -4.381315 0.727403
v -12.815432 -4.381315 0.727402
v -12.815432 -4.381315 -0.727403
v -10.899029 -1.986544 -0.727403
v -10.899029 -1.986544 0.727402
v -9.572596 -1.986544 0.727403
v -9.572593 -1.986544 -0.727403
v 9.593355 -1.986544 0.727403
v 9.593360 -1.986544 -0.727403
v 10.919790 -1.986544 -0.727403
v 10.919790 -1.986544 0.727403
v 12.836195 -4.381315 0.727403
v 12.836195 -4.381315 -0.727402
v 9.593360 -4.381315 -0.727403
v 9.593355 -4.381315 0.727403
v 12.836195 -4.745017 0.727403
v 12.836195 -4.745017 -0.727403
v 9.593356 -4.745017 -0.727403
v 9.593356 -4.745017 0.727403
v -10.051373 -2.073655 -0.108641
v -10.051373 -2.073655 0.108640
v -10.535703 -2.073655 0.108640
v -10.535703 -2.073655 -0.108641
v -10.051373 6.866113 -0.108641
v -10.051373 6.866113 0.108641
v -10.535703 6.866113 0.108640
v -10.535703 6.866113 -0.108641
v 10.009845 6.866113 -0.108641
v 10.009845 6.866113 0.108640
v 10.494176 6.866113 0.108641
v 10.494176 6.866113 -0.108641
v 10.009845 -2.073655 -0.108641
v 10.009845 -2.073655 0.108640
v 10.494176 -2.073655 0.108640
v 10.494176 -2.073655 -0.108641
v 10.154752 3.372578 -0.038636
v 10.154752 3.372578 0.038636
v -10.133988 3.372578 0.038636
v -10.133984 3.372578 -0.038636
v 10.154756 6.628795 -0.038636
v 10.154744 6.628795 0.038636
v -10.133991 6.628795 0.038636
v -10.133987 6.628795 -0.038636
vt 0.311229 0.320653
vt 0.311227 0.411626
vt 0.633444 0.411626
vt 0.633448 0.320653
vt 0.311229 0.320653
vt 0.275090 0.320653
vt 0.275089 0.411626
vt 0.311227 0.411626
vt 0.819079 0.581837
vt 0.853709 0.563657
vt 0.669382 0.411626
vt 0.633444 0.411626
vt 0.633444 0.411626
vt 0.669382 0.411626
vt 0.669641 0.322416
vt 0.633448 0.320653
vt 0.847483 0.170055
vt 0.813639 0.153066
vt 0.633448 0.320653
vt 0.669641 0.322416
vt 0.847483 0.170055
vt 0.669641 0.322416
vt 0.878996 0.322416
vt 0.993295 0.322416
vt 0.669641 0.322416
vt 0.669382 0.411626
vt 0.877419 0.411626
vt 0.878996 0.322416
vt 0.669382 0.411626
vt 0.853709 0.563657
vt 0.992906 0.411626
vt 0.877419 0.411626
vt 0.275089 0.411626
vt 0.275090 0.320653
vt 0.037138 0.320653
vt 0.037138 0.411626
vt 0.993295 0.322416
vt 0.878996 0.322416
vt 0.877419 0.411626
vt 0.992906 0.411626
vt 0.992906 0.411626
vt 0.877419 0.411626
vt 0.878996 0.322416
vt 0.993295 0.322416
vt 0.275090 0.320653
vt 0.275089 0.411626
vt 0.037138 0.411626
vt 0.037138 0.320653
vt 0.669641 0.322416
vt 0.847483 0.170055
vt 0.993295 0.322416
vt 0.878996 0.322416
vt 0.669382 0.411626
vt 0.669641 0.322416
vt 0.878996 0.322416
vt 0.877419 0.411626
vt 0.853709 0.563657
vt 0.669382 0.411626
vt 0.877419 0.411626
vt 0.992906 0.411626
vt 0.853709 0.563657
vt 0.819079 0.581837
vt 0.633444 0.411626
vt 0.669382 0.411626
vt 0.633448 0.320653
vt 0.669641 0.322416
vt 0.669382 0.411626
vt 0.633444 0.411626
vt 0.813639 0.153066
vt 0.847483 0.170055
vt 0.669641 0.322416
vt 0.633448 0.320653
vt 0.311227 0.411626
vt 0.275089 0.411626
vt 0.275090 0.320653
vt 0.311229 0.320653
vt 0.311227 0.411626
vt 0.311229 0.320653
vt 0.633448 0.320653
vt 0.633444 0.411626
vt 0.924286 0.068675
vt 0.924286 0.093582
vt 0.992066 0.093582
vt 0.992066 0.068596
vt 0.027747 0.093582
vt 0.091109 0.093582
vt 0.091109 0.068675
vt 0.027747 0.068755
vt 0.924286 0.018699
vt 0.091109 0.018699
vt 0.091109 0.043605
vt 0.924286 0.043605
vt 0.924286 0.043605
vt 0.091109 0.043605
vt 0.091109 0.068675
vt 0.924286 0.068675
vt 0.924286 0.068675
vt 0.091109 0.068675
vt 0.091109 0.093582
vt 0.924286 0.093582
vt 0.924286 0.093582
vt 0.091109 0.093582
vt 0.091109 0.118652
vt 0.924286 0.118652
vt 0.924286 0.118652
vt 0.091109 0.118652
vt 0.091109 0.093582
vt 0.924286 0.093582
vt 0.924286 0.043605
vt 0.091109 0.043605
vt 0.091109 0.018699
vt 0.924286 0.018699
vt 0.924286 0.068675
vt 0.091109 0.068675
vt 0.091109 0.043605
vt 0.924286 0.043605
vt 0.924286 0.093582
vt 0.091109 0.093582
vt 0.091109 0.068675
vt 0.924286 0.068675
vt 0.091109 0.093582
vt 0.027747 0.093582
vt 0.027747 0.068755
vt 0.091109 0.068675
vt 0.992066 0.068596
vt 0.992066 0.093582
vt 0.924286 0.093582
vt 0.924286 0.068675
vt 0.041191 0.826271
vt 0.041191 0.803883
vt 0.960527 0.803879
vt 0.960527 0.826271
vt 0.960527 0.656331
vt 0.041191 0.656336
vt 0.041191 0.632048
vt 0.960527 0.632044
vt 0.981052 0.826271
vt 0.981052 0.973820
vt 0.960527 0.973820
vt 0.960527 0.826271
vt 0.960527 0.826271
vt 0.960527 0.973820
vt 0.041191 0.973820
vt 0.041191 0.826271
vt 0.041191 0.826271
vt 0.041191 0.973820
vt 0.022862 0.973820
vt 0.022861 0.826271
vt 0.960527 0.656332
vt 0.960527 0.803879
vt 0.041191 0.803883
vt 0.041191 0.656336
vn 0.577350 -0.577350 -0.577350
vn 0.577350 -0.577350 0.577350
vn -0.577350 -0.577350 0.577350
vn -0.577350 -0.577350 -0.577350
vn 0.707107 0.000000 -0.707107
vn 0.707107 -0.000000 0.707107
vn -0.647584 0.227214 0.727330
vn -0.647584 0.227214 -0.727330
vn -0.378741 0.788184 -0.485100
vn -0.378741 0.788184 0.485100
vn 0.577350 0.577350 0.577350
vn 0.577350 0.577350 -0.577350
vn -0.577360 0.577360 0.577330
vn -0.577350 0.577350 -0.577350
vn 0.378741 0.788184 -0.485100
vn 0.378741 0.788184 0.485100
vn 0.647584 0.227214 0.727330
vn 0.647584 0.227214 -0.727330
vn -0.707107 0.000000 -0.707107
vn -0.707107 -0.000000 0.707107
vn 0.577350 -0.577350 0.577350
vn 0.577350 -0.577350 -0.577350
vn -0.577360 -0.577330 -0.577360
vn -0.577360 -0.577330 0.577360
vn 0.577350 -0.577350 -0.577350
vn 0.577350 -0.577350 0.577350
vn -0.577350 -0.577350 0.577350
vn -0.577350 -0.577350 -0.577350
vn 0.577350 0.577350 -0.577350
vn 0.577350 0.577350 0.577350
vn -0.577350 0.577350 0.577350
vn -0.577350 0.577350 -0.577350
vn -0.577350 0.577350 -0.577350
vn -0.577350 0.577350 0.577350
vn 0.577350 0.577350 0.577350
vn 0.577350 0.577350 -0.577350
vn -0.577350 -0.577350 -0.577350
vn -0.577350 -0.577350 0.577350
vn 0.577350 -0.577350 0.577350
vn 0.577350 -0.577350 -0.577350
vn 0.577360 -0.577360 -0.577330
vn 0.577340 -0.577340 0.577371
vn -0.577360 -0.577360 0.577330
vn -0.577340 -0.577340 -0.577371
vn 0.577360 0.577360 -0.577330
vn 0.577340 0.577340 0.577371
vn -0.577360 0.577360 0.577330
vn -0.577340 0.577340 -0.577371
usemtl goal__goal_png
f 1/1/1 2/2/2 3/3/3 4/4/4
f 1/5/1 5/6/5 6/7/6 2/8/2
f 2/9/2 6/10/6 7/11/7 3/12/3
f 3/13/3 7/14/7 8/15/8 4/16/4
f 5/17/5 1/18/1 4/19/4 8/20/8
f 5/21/5 8/22/8 9/23/9 12/24/12
f 8/25/8 7/26/7 10/27/10 9/28/9
f 7/29/7 6/30/6 11/31/11 10/32/10
f 6/33/6 5/34/5 12/35/12 11/36/11
f 12/37/12 9/38/9 10/39/10 11/40/11
f 13/41/13 16/42/16 15/43/15 14/44/14
f 19/45/19 20/46/20 13/47/13 14/48/14
f 18/49/18 19/50/19 14/51/14 15/52/15
f 17/53/17 18/54/18 15/55/15 16/56/16
f 20/57/20 17/58/17 16/59/16 13/60/13
f 20/61/20 24/62/24 21/63/21 17/64/17
f 22/65/22 18/66/18 17/67/17 21/68/21
f 23/69/23 19/70/19 18/71/18 22/72/22
f 24/73/24 20/74/20 19/75/19 23/76/23
f 24/77/24 23/78/23 22/79/22 21/80/21
f 27/81/27 28/82/28 25/83/25 26/84/26
f 29/85/29 32/86/32 31/87/31 30/88/30
f 25/89/25 29/90/29 30/91/30 26/92/26
f 26/93/26 30/94/30 31/95/31 27/96/27
f 27/97/27 31/98/31 32/99/32 28/100/28
f 28/101/28 32/102/32 29/103/29 25/104/25
f 37/105/37 33/106/33 36/107/36 40/108/40
f 38/109/38 34/110/34 33/111/33 37/112/37
f 39/113/39 35/114/35 34/115/34 38/116/38
f 40/117/40 36/118/36 35/119/35 39/120/39
f 36/121/36 33/122/33 34/123/34 35/124/35
f 38/125/38 37/126/37 40/127/40 39/128/39
f 43/129/43 44/130/44 41/131/41 42/132/42
f 45/133/45 48/134/48 47/135/47 46/136/46
f 41/137/41 45/138/45 46/139/46 42/140/42
f 42/141/42 46/142/46 47/143/47 43/144/43
f 43/145/43 47/146/47 48/147/48 44/148/44
f 44/149/44 48/150/48 45/151/45 41/152/41
